<svg xmlns="http://www.w3.org/2000/svg" viewBox="0 0 28 28"><defs><style>.cls-1{fill:#42a738;}.cls-2{fill:#fff;}</style></defs><title>微信</title><g id="图层_2" data-name="图层 2"><g id="隔离模式"><circle class="cls-1" cx="14" cy="14" r="14"/><path class="cls-2" d="M17.9,10.85h.3c-.53-2.86-3.48-5-7-5C7.22,5.81,4,8.48,4,11.77a5.68,5.68,0,0,0,2.8,4.74l.07,0L6.2,18.71l2.58-1.31.12,0a8.41,8.41,0,0,0,2.26.3h.48a4.63,4.63,0,0,1-.23-1.42c0-3,2.91-5.44,6.49-5.44m-4.26-2.1a1,1,0,1,1-1,1,1,1,0,0,1,1-1m-5,1.94a1,1,0,1,1,1-1,1,1,0,0,1-1,1"/><path class="cls-2" d="M11.93,16.33c0,2.78,2.7,5,6,5a7.08,7.08,0,0,0,1.9-.26l.1,0,2.18,1.11-.58-1.82.06,0a4.8,4.8,0,0,0,2.36-4c0-2.78-2.7-5-6-5s-6,2.25-6,5M19.2,14.6a.85.85,0,1,1,.85.82.83.83,0,0,1-.85-.82M15,14.6a.85.85,0,1,1,.85.82A.83.83,0,0,1,15,14.6"/></g></g></svg>