<svg xmlns="http://www.w3.org/2000/svg" viewBox="0 0 28 28"><defs><style>.cls-1{fill:#42a738;}.cls-2{fill:#fff;}</style></defs><title>微信朋友圈</title><g id="图层_2" data-name="图层 2"><g id="隔离模式"><circle class="cls-1" cx="14" cy="14" r="14"/><path class="cls-2" d="M11.59,5.67l5.71,7L17.45,6a8.65,8.65,0,0,0-5.86-.37"/><path class="cls-2" d="M6.41,9.81l9,.92L10.81,5.94a8.65,8.65,0,0,0-4.4,3.88"/><path class="cls-2" d="M5.67,16.41l7-5.71L6,10.55a8.65,8.65,0,0,0-.37,5.86"/><path class="cls-2" d="M9.81,21.59l.92-9L5.94,17.19a8.65,8.65,0,0,0,3.87,4.4"/><path class="cls-2" d="M16.41,22.33l-5.71-7L10.55,22a8.65,8.65,0,0,0,5.86.37"/><path class="cls-2" d="M21.59,18.19l-9-.92,4.58,4.79a8.64,8.64,0,0,0,4.4-3.88"/><path class="cls-2" d="M22.33,11.59l-7,5.71,6.63.15a8.64,8.64,0,0,0,.37-5.86"/><path class="cls-2" d="M18.19,6.41l-.92,9,4.79-4.58a8.64,8.64,0,0,0-3.88-4.4"/></g></g></svg>