<svg xmlns="http://www.w3.org/2000/svg" viewBox="0 0 30 30"><defs><style>.cls-1{fill:#f4be44;fill-rule:evenodd;}</style></defs><title>资源 2</title><g id="图层_2" data-name="图层 2"><g id="图层_1-2" data-name="图层 1"><path class="cls-1" d="M15,0A15,15,0,1,0,30,15,15,15,0,0,0,15,0Zm0,28.12A13.12,13.12,0,1,1,28,15,13,13,0,0,1,15,28.12Z"/><path class="cls-1" d="M21.8,9.2l-8.35,9.27L8.8,14.4a1.23,1.23,0,0,0-1.65,1.81L12.71,21A1.27,1.27,0,0,0,14.44,21l9.1-10.18A1.28,1.28,0,0,0,23.46,9a1.19,1.19,0,0,0-1.65.15Z"/></g></g></svg>