<svg xmlns="http://www.w3.org/2000/svg" viewBox="0 0 750 88"><defs><style>.cls-1,.cls-5{fill:#fff;}.cls-2,.cls-3,.cls-4{fill:#666;}.cls-2{fill-rule:evenodd;}.cls-3,.cls-6{font-size:24px;}.cls-3,.cls-5,.cls-6{font-family:PingFangSC-Medium-GBpc-EUC-H, PingFang SC;}.cls-5{font-size:18px;}.cls-6,.cls-7{fill:#f5b62d;}</style></defs><title>资源 1</title><g id="图层_2" data-name="图层 2"><g id="图层_1-2" data-name="图层 1"><rect class="cls-1" width="750" height="88"/><path class="cls-2" d="M224.93,41A3,3,0,1,1,222,44a2.95,2.95,0,0,1,2.89-3Z"/><path class="cls-2" d="M236.78,41a3,3,0,1,1-2.89,3,2.95,2.95,0,0,1,2.89-3Z"/><path class="cls-2" d="M248.62,41a3,3,0,1,1-2.89,3,2.95,2.95,0,0,1,2.89-3Z"/><path class="cls-2" d="M260.47,41a3,3,0,1,1-2.89,3,2.95,2.95,0,0,1,2.89-3Z"/><path class="cls-2" d="M272.31,41a3,3,0,1,1-2.89,3,2.95,2.95,0,0,1,2.89-3Z"/><path class="cls-2" d="M284.15,41a3,3,0,1,1-2.89,3,2.95,2.95,0,0,1,2.89-3Z"/><text class="cls-3" transform="translate(89 51.54)">扫描身份证</text><circle class="cls-4" cx="64" cy="44" r="12"/><text class="cls-5" transform="translate(59.67 49.65)">1</text><path class="cls-2" d="M470.24,41a3,3,0,1,1-2.89,3,2.95,2.95,0,0,1,2.89-3Z"/><path class="cls-2" d="M482.09,41a3,3,0,1,1-2.89,3,2.95,2.95,0,0,1,2.89-3Z"/><path class="cls-2" d="M493.93,41A3,3,0,1,1,491,44a2.95,2.95,0,0,1,2.89-3Z"/><path class="cls-2" d="M505.78,41a3,3,0,1,1-2.89,3,2.95,2.95,0,0,1,2.89-3Z"/><path class="cls-2" d="M517.62,41a3,3,0,1,1-2.89,3,2.95,2.95,0,0,1,2.89-3Z"/><path class="cls-2" d="M529.46,41a3,3,0,1,1-2.89,3,2.95,2.95,0,0,1,2.89-3Z"/><text class="cls-3" transform="translate(358 51.54)">上传资料</text><circle class="cls-4" cx="333" cy="44" r="12"/><text class="cls-5" transform="translate(327.67 49.65)">2</text><text class="cls-6" transform="translate(603 51.54)">补充信息</text><circle class="cls-7" cx="578" cy="44" r="12"/><text class="cls-5" transform="translate(572.67 49.65)">3</text></g></g></svg>