<svg xmlns="http://www.w3.org/2000/svg" viewBox="0 0 750 88"><defs><style>.cls-1,.cls-4{fill:#fff;}.cls-2,.cls-4,.cls-5{isolation:isolate;font-family:PingFangSC-Medium-GBpc-EUC-H, PingFang SC;}.cls-2,.cls-5{font-size:24px;}.cls-2,.cls-3{fill:#666;}.cls-4{font-size:18px;}.cls-5,.cls-6{fill:#f5b62d;}</style></defs><title>步骤</title><g id="图层_2" data-name="图层 2"><g id="图层_1-2" data-name="图层 1"><g id="图层_2-2" data-name="图层 2"><g id="图层_1-2-2" data-name="图层 1-2"><rect class="cls-1" width="750" height="88"/><text class="cls-2" transform="translate(89 51.54)">扫描身份证</text><circle class="cls-3" cx="64" cy="44" r="12"/><text class="cls-4" transform="translate(59.67 49.65)">1</text><path class="cls-3" d="M345.25,41a3,3,0,1,1-2.9,3.1V44A3,3,0,0,1,345.25,41Z"/><path class="cls-3" d="M357.15,41a3,3,0,1,1-2.9,3.1V44A3,3,0,0,1,357.15,41Z"/><path class="cls-3" d="M368.95,41a3,3,0,1,1-2.9,3.1V44a3,3,0,0,1,2.9-3Z"/><path class="cls-3" d="M380.85,41a3,3,0,1,1-2.9,3.1V44A3,3,0,0,1,380.85,41Z"/><path class="cls-3" d="M392.65,41a3,3,0,1,1-2.9,3.1V44A3,3,0,0,1,392.65,41Z"/><path class="cls-3" d="M404.55,41a3,3,0,1,1-2.9,3.1V44A2.86,2.86,0,0,1,404.55,41Z"/><text class="cls-4" transform="translate(327.67 49.65)">2</text><text class="cls-5" transform="translate(603 51.54)">补充信息</text><circle class="cls-6" cx="578" cy="44" r="12"/><text class="cls-4" transform="translate(572.67 49.65)">2</text></g></g></g></g></svg>