<?xml version="1.0" encoding="utf-8"?>
<!-- Generator: Adobe Illustrator 21.0.0, SVG Export Plug-In . SVG Version: 6.00 Build 0)  -->
<svg version="1.1" id="图层_1" xmlns="http://www.w3.org/2000/svg" xmlns:xlink="http://www.w3.org/1999/xlink" x="0px" y="0px"
	 viewBox="0 0 103 63" style="enable-background:new 0 0 103 63;" xml:space="preserve">
<style type="text/css">
	.st0{opacity:0.5;fill:#FFFFFF;stroke:#C7C7CB;stroke-miterlimit:10;enable-background:new    ;}
	.st1{fill:none;}
	.st2{opacity:0.5;fill:none;stroke:#C7C7CB;stroke-miterlimit:10;enable-background:new    ;}
</style>
<title>资源 3</title>
<g id="图层_2">
	<g id="图层_1-2">
		<path class="st0" d="M0.5,31.5c0,17.1,13.9,31,31,31h40c17.1,0,31-13.9,31-31s-13.9-31-31-31l-40,0C14.4,0.5,0.5,14.4,0.5,31.5z"
			/>
		<path class="st1" d="M59.5,31.5c0,15.5-12.5,28-28,28s-28-12.5-28-28s12.5-28,28-28S59.5,16,59.5,31.5z"/>
		<path class="st2" d="M58.5,31.5c0,14.9-12.1,27-27,27s-27-12.1-27-27s12.1-27,27-27S58.5,16.6,58.5,31.5z"/>
	</g>
</g>
</svg>
