<?xml version="1.0" encoding="utf-8"?>
<!-- Generator: Adobe Illustrator 21.0.0, SVG Export Plug-In . SVG Version: 6.00 Build 0)  -->
<svg version="1.1" id="图层_1" xmlns="http://www.w3.org/2000/svg" xmlns:xlink="http://www.w3.org/1999/xlink" x="0px" y="0px"
	 viewBox="0 0 102 62" style="enable-background:new 0 0 102 62;" xml:space="preserve">
<style type="text/css">
	.st0{fill:#F4BE44;}
	.st1{fill:none;}
	.st2{fill:#FFFFFF;}
</style>
<title>资源 2</title>
<g id="图层_2">
	<g id="图层_1-2">
		<path class="st0" d="M71,0L31,0C13.9,0,0,13.9,0,31c0,17.1,13.9,31,31,31h40c17.1,0,31-13.9,31-31S88.1,0,71,0z"/>
		<path class="st1" d="M71,3c15.5,0,28,12.5,28,28S86.5,59,71,59S43,46.5,43,31S55.5,3,71,3z"/>
		<path class="st2" d="M71,4c14.9,0,27,12.1,27,27S85.9,58,71,58S44,45.9,44,31S56.1,4,71,4z"/>
	</g>
</g>
</svg>
